<?xml version="1.0" encoding="UTF-8"?>
<svg width="15px" height="18px" viewBox="0 0 15 18" version="1.1" xmlns="http://www.w3.org/2000/svg" xmlns:xlink="http://www.w3.org/1999/xlink">
    <!-- Generator: Sketch 58 (84663) - https://sketch.com -->
    <title>apple</title>
    <desc>Created with Sketch.</desc>
    <g id="Jorney" stroke="none" stroke-width="1" fill="none" fill-rule="evenodd">
        <g id="Log-in" transform="translate(-49.000000, -321.000000)">
            <g id="fb_signup-+-google_signup-copy-2" transform="translate(32.000000, 305.000000)">
                <g id="fb_signup">
                    <g id="apple" transform="translate(12.000000, 13.000000)">
                        <rect id="Rectangle" x="0" y="0" width="24" height="24"></rect>
                        <path d="M15.578859,6.99999536 C15.6775344,6.99999536 15.7757967,7.00477569 15.8709901,7.01427733 C16.5270163,7.04248717 18.156459,7.2769593 19.2195803,8.83274946 C19.2420065,8.86556258 19.2502688,8.90616586 19.2423606,8.94517569 C19.2344524,8.98424454 19.2111409,9.01841504 19.1776786,9.03995602 L19.1776786,9.03995602 L19.1632786,9.04892651 C18.8543868,9.24002159 17.314177,10.2943495 17.3339475,12.2853265 C17.3552524,14.7359232 19.3819934,15.635038 19.6130426,15.7295232 C19.6149901,15.7303495 19.621954,15.7332413 19.6238426,15.7341265 C19.6923606,15.7655822 19.726118,15.8436019 19.7022163,15.9150708 L19.7022163,15.9150708 L19.6971409,15.9310642 C19.5716131,16.3332019 19.1995737,17.3855232 18.4579147,18.4693593 C17.7471803,19.5073986 16.9416065,20.6840675 15.629554,20.7085003 C15.0162557,20.7200085 14.6011934,20.5396544 14.1982295,20.36532 C13.7893639,20.1883888 13.3665704,20.005379 12.7040524,20.005379 C12.007659,20.005379 11.5636786,20.1945265 11.1343934,20.3774773 C10.7520262,20.5403036 10.3565573,20.7087954 9.80929831,20.7306314 C9.78675405,20.7315167 9.76474093,20.7319298 9.74278683,20.7319298 C8.57798028,20.7319298 7.72755405,19.6414839 6.88757372,18.4266904 C5.20478028,15.9968675 4.23738355,11.9894773 5.75912126,9.34878881 C6.55938355,7.95694618 8.01095077,7.07807405 9.54714749,7.05547077 C9.56243274,7.05517569 9.57795405,7.05499864 9.59371142,7.05499864 C10.2543999,7.05499864 10.8784983,7.30263143 11.4291213,7.52116913 C11.8408786,7.68452651 12.1964524,7.82563471 12.4704655,7.82563471 C12.7143213,7.82563471 13.0678885,7.68623799 13.4772262,7.52482815 C14.0702229,7.2910052 14.8083409,6.99999536 15.578859,6.99999536 Z M15.9239934,3.0001134 C16.0003607,2.99710356 16.0681705,3.05434946 16.0766689,3.13142487 C16.1845508,4.11499208 15.8279148,5.2130511 15.1226098,6.06867077 C14.4524787,6.87896586 13.4712131,7.38219864 12.5615934,7.38219864 C12.4977377,7.38213963 12.4336459,7.37966094 12.3708525,7.37476258 C12.3013902,7.36939208 12.2452066,7.31610028 12.236059,7.2470511 C12.0901705,6.14344454 12.6439213,5.04857241 13.2107738,4.391897 C13.877777,3.61063799 14.993718,3.03800192 15.9239934,3.0001134 Z" id="Combined-Shape" fill="#000000" fill-rule="nonzero"></path>
                    </g>
                </g>
            </g>
        </g>
    </g>
</svg>