<?xml version="1.0" encoding="UTF-8"?>
<svg width="18px" height="18px" viewBox="0 0 18 18" version="1.1" xmlns="http://www.w3.org/2000/svg" xmlns:xlink="http://www.w3.org/1999/xlink">
    <!-- Generator: Sketch 58 (84663) - https://sketch.com -->
    <title>ic/google</title>
    <desc>Created with Sketch.</desc>
    <g id="Jorney" stroke="none" stroke-width="1" fill="none" fill-rule="evenodd">
        <g id="Log-in" transform="translate(-50.000000, -254.000000)">
            <g id="Group-2" transform="translate(32.000000, 239.000000)">
                <g id="ic/google" transform="translate(15.000000, 12.000000)">
                    <rect id="Rectangle" x="0" y="0" width="24" height="24"></rect>
                    <path d="M6.98917969,13.877625 L6.362625,16.2166406 L4.07258203,16.2650859 C3.38819531,14.9956992 3,13.5433594 3,12 C3,10.507582 3.36295312,9.10020703 4.0063125,7.86098438 L4.00680469,7.86098438 L6.04558594,8.23476563 L6.93869531,10.2613125 C6.75176953,10.8062695 6.64988672,11.3912695 6.64988672,12 C6.64995703,12.6606563 6.76962891,13.2936445 6.98917969,13.877625 Z" id="Path" fill="#FBBB00" fill-rule="nonzero"></path>
                    <path d="M20.8427461,10.3186875 C20.9461055,10.8631172 21,11.4253711 21,12 C21,12.6443438 20.9322539,13.2728672 20.8031953,13.8791367 C20.3650781,15.9422109 19.2202852,17.7436875 17.6344219,19.0185234 L17.6339297,19.0180313 L15.0659766,18.8870039 L14.7025313,16.6181953 C15.7548281,16.0010625 16.5772031,15.0352852 17.0103984,13.8791367 L12.1978594,13.8791367 L12.1978594,10.3186875 L17.0806055,10.3186875 L20.8427461,10.3186875 L20.8427461,10.3186875 Z" id="Path" fill="#518EF8" fill-rule="nonzero"></path>
                    <path d="M17.6338945,19.0180313 L17.6343867,19.0185234 C16.0920469,20.2582383 14.1327891,21 12,21 C8.57258203,21 5.59270313,19.0843008 4.07258203,16.2651211 L6.98917969,13.8776602 C7.74922266,15.9061055 9.70598438,17.3500781 12,17.3500781 C12.9860273,17.3500781 13.909793,17.0835234 14.7024609,16.6181953 L17.6338945,19.0180313 Z" id="Path" fill="#28B446" fill-rule="nonzero"></path>
                    <path d="M17.7446719,5.07196875 L14.8290586,7.4589375 C14.0086875,6.94614844 13.0389375,6.64992188 12,6.64992188 C9.65405859,6.64992188 7.66069922,8.16012891 6.93873047,10.2613125 L4.00680469,7.86098437 L4.0063125,7.86098437 C5.50417969,4.97307422 8.52164062,3 12,3 C14.1837305,3 16.1859844,3.77786719 17.7446719,5.07196875 Z" id="Path" fill="#F14336" fill-rule="nonzero"></path>
                </g>
            </g>
        </g>
    </g>
</svg>