<?xml version="1.0" encoding="UTF-8"?>
<svg width="24px" height="24px" viewBox="0 0 24 24" version="1.1" xmlns="http://www.w3.org/2000/svg" xmlns:xlink="http://www.w3.org/1999/xlink">
    <!-- Generator: Sketch 58 (84663) - https://sketch.com -->
    <title>Icon / ic_error</title>
    <desc>Created with Sketch.</desc>
    <g id="Icon-/-ic_error" stroke="none" stroke-width="1" fill="none" fill-rule="evenodd">
        <path d="M12,19.2259615 C13.2980834,19.2259615 14.5096098,18.8942341 15.6346154,18.2307692 C16.7307747,17.5961507 17.5961507,16.7307747 18.2307692,15.6346154 C18.8942341,14.5096098 19.2259615,13.2980834 19.2259615,12 C19.2259615,10.7019166 18.8942341,9.49039024 18.2307692,8.36538462 C17.5961507,7.26922529 16.7307747,6.40384933 15.6346154,5.76923077 C14.5096098,5.10576591 13.2980834,4.77403846 12,4.77403846 C10.7019166,4.77403846 9.49039024,5.10576591 8.36538462,5.76923077 C7.26922529,6.40384933 6.40384933,7.26922529 5.76923077,8.36538462 C5.10576591,9.49039024 4.77403846,10.7019166 4.77403846,12 C4.77403846,13.2980834 5.10576591,14.5096098 5.76923077,15.6346154 C6.40384933,16.7307747 7.26922529,17.5961507 8.36538462,18.2307692 C9.49039024,18.8942341 10.7019166,19.2259615 12,19.2259615 Z M12,3 C13.644239,3 15.1658584,3.41105358 16.5649038,4.23317308 C17.9206799,5.01202312 18.9879769,6.07932014 19.7668269,7.43509615 C20.5889464,8.83414161 21,10.355761 21,12 C21,13.644239 20.5889464,15.1658584 19.7668269,16.5649038 C18.9879769,17.9206799 17.9206799,18.9879769 16.5649038,19.7668269 C15.1658584,20.5889464 13.644239,21 12,21 C10.355761,21 8.83414161,20.5889464 7.43509615,19.7668269 C6.07932014,18.9735537 5.01202312,17.8990452 4.23317308,16.5432692 C3.41105358,15.1442238 3,13.6298158 3,12 C3,10.3701842 3.41105358,8.85577623 4.23317308,7.45673077 C5.02644627,6.10095476 6.10095476,5.02644627 7.45673077,4.23317308 C8.85577623,3.41105358 10.3701842,3 12,3 Z M11.1129808,7.47836538 L12.8870192,7.47836538 L12.8870192,12.8870192 L11.1129808,12.8870192 L11.1129808,7.47836538 Z M11.1129808,14.7043269 L12.8870192,14.7043269 L12.8870192,16.5216346 L11.1129808,16.5216346 L11.1129808,14.7043269 Z" id="ic_error" fill="#FF3C45" fill-rule="nonzero"></path>
    </g>
</svg>