<?xml version="1.0" encoding="UTF-8"?>
<svg width="24px" height="24px" viewBox="0 0 24 24" version="1.1" xmlns="http://www.w3.org/2000/svg" xmlns:xlink="http://www.w3.org/1999/xlink">
    <!-- Generator: Sketch 58 (84663) - https://sketch.com -->
    <title>ic/show-active</title>
    <desc>Created with Sketch.</desc>
    <g id="ic/show-active" stroke="none" stroke-width="1" fill="none" fill-rule="evenodd">
        <g>
            <polygon id="Stroke-1" stroke-opacity="0.0117647061" stroke="#000000" stroke-width="1.33333336e-11" points="0 0 23.999999 0 23.999999 23.999999 0 23.999999"></polygon>
            <path d="M11.9999999,4.49999973 C6.99999994,4.49999973 2.72999984,7.60999964 0.99999994,11.9999997 C2.72999984,16.3899984 6.99999994,19.4999997 11.9999999,19.4999997 C16.9999999,19.4999997 21.2699987,16.3899984 22.9999999,11.9999997 C21.2699987,7.60999964 16.9999999,4.49999973 11.9999999,4.49999973 Z M11.9999996,16.9999996 C9.23999925,16.9999996 6.99999958,14.7599993 6.99999958,11.9999996 C6.99999958,9.23999925 9.23999925,6.99999958 11.9999996,6.99999958 C14.7599993,6.99999958 16.9999996,9.23999925 16.9999996,11.9999996 C16.9999996,14.7599993 14.7599993,16.9999996 11.9999996,16.9999996 Z M11.9999995,8.99999946 C10.3399996,8.99999946 8.99999946,10.3399996 8.99999946,11.9999995 C8.99999946,13.659999 10.3399996,14.9999995 11.9999995,14.9999995 C13.659999,14.9999995 14.9999995,13.659999 14.9999995,11.9999995 C14.9999995,10.3399996 13.659999,8.99999946 11.9999995,8.99999946 Z" id="Fill-3" fill="#3B3E4F"></path>
        </g>
    </g>
</svg>