<?xml version="1.0" encoding="utf-8"?>
<!-- Generator: Adobe Illustrator 24.1.0, SVG Export Plug-In . SVG Version: 6.00 Build 0)  -->
<svg version="1.1" id="Layer_1" xmlns="http://www.w3.org/2000/svg" xmlns:xlink="http://www.w3.org/1999/xlink" x="0px" y="0px"
	 viewBox="0 0 195.8 66.6" style="enable-background:new 0 0 195.8 66.6;" xml:space="preserve">
<g id="Layer_2_1_">
	<g id="Layer_2-2">
		<polygon style="fill:#5ba4cf;" points="111.3,32.5 114.4,50.9 97.9,42.2 81.4,50.9 84.5,32.5 71.1,19.4 89.6,16.7 97.9,0 
			106.2,16.7 124.7,19.4 		"/>
		<polygon style="fill:#5ba4cf;" points="182.4,48.2 185.5,66.6 169,57.9 152.5,66.6 155.6,48.1 142.2,35.1 160.7,32.4 169,15.7 
			177.3,32.4 195.8,35.1 		"/>
		<polygon style="fill:#5ba4cf;" points="40.1,48.2 43.3,66.6 26.8,57.9 10.2,66.6 13.4,48.1 0,35.1 18.5,32.4 26.8,15.7 35,32.4 
			53.5,35.1 		"/>
	</g>
</g>
</svg>
