<?xml version="1.0" encoding="utf-8"?>
<!-- Generator: Adobe Illustrator 24.1.0, SVG Export Plug-In . SVG Version: 6.00 Build 0)  -->
<svg version="1.1" id="Layer_1" xmlns="http://www.w3.org/2000/svg" xmlns:xlink="http://www.w3.org/1999/xlink" x="0px" y="0px"
	 viewBox="0 0 195.8 66.6" style="enable-background:new 0 0 195.8 66.6;" xml:space="preserve">
<g id="Layer_2_1_">
	<g id="Layer_2-2">
		<path style="fill:#5ba4cf;" d="M114.4,50.9l-16.5-8.7l-16.5,8.7l3.2-18.4l-13.4-13l18.5-2.7L97.9,0l8.3,16.8l18.5,2.7l-13.4,13.1
			L114.4,50.9z M73.3,20.1l12.3,12l-2.9,16.9l15.2-8l15.2,8l-2.9-16.9l12.3-12l-17-2.5L97.9,2.3l-7.6,15.4L73.3,20.1z"/>
		<path style="fill:#5ba4cf;" d="M152.5,66.6l3.2-18.4l-13.4-13l18.5-2.7l8.2-16.8l8.3,16.8l18.5,2.7l-13.4,13l3.2,18.4L169,57.9
			L152.5,66.6z M169,56.8l15.2,8l-2.9-16.9l12.3-12l-17-2.5L169,17.9l-7.6,15.4l-17,2.5l12.3,12l-2.9,16.9L169,56.8z"/>
		<polygon style="fill:#5ba4cf;" points="40.1,48.2 43.3,66.6 26.8,57.9 10.2,66.6 13.4,48.1 0,35.1 18.5,32.4 26.8,15.7 35,32.4 
			53.5,35.1 		"/>
	</g>
</g>
</svg>
