<?xml version="1.0" encoding="utf-8"?>
<!-- Generator: Adobe Illustrator 24.1.0, SVG Export Plug-In . SVG Version: 6.00 Build 0)  -->
<svg version="1.1" id="Layer_1" xmlns="http://www.w3.org/2000/svg" xmlns:xlink="http://www.w3.org/1999/xlink" x="0px" y="0px"
	 viewBox="0 0 1027.5 181.1" style="enable-background:new 0 0 1027.5 181.1;" xml:space="preserve">
<g id="Layer_2_1_">
	<g id="Layer_2-2">
		<path style="fill:#3630FF;" d="M775,118.7c13.5-12,21.2-29.3,21.2-47.4V36.6H697v141.2h29.2v-42.9h6.4c5.6,0,11.1-0.7,16.5-2.2
			l26.7,45h34.2L775,118.7z M767,74.6c0,17.1-13.9,31-31,31h-9.6V65.8H767L767,74.6z"/>
		<polygon style="fill:#3630FF;" points="402.2,36.7 402.2,177.8 372.9,137.2 300.4,36.7 334.6,36.7 372.9,89.9 372.9,36.7 		"/>
		<path style="fill:#3630FF;" d="M314.8,98.9L314.8,98.9c8.1,0,14.6,6.5,14.6,14.6v64.3l0,0h-29.2l0,0v-64.3
			C300.2,105.4,306.7,98.9,314.8,98.9z"/>
		<polygon style="fill:#3630FF;" points="199,65.8 199,148.6 269,148.6 269,177.9 169.9,177.9 169.9,177.8 169.8,177.8 169.8,36.7 
			169.9,36.7 169.9,36.6 269,36.6 269,65.8 		"/>
		<polygon style="fill:#3630FF;" points="14.7,65.8 0,36.6 157.9,36.6 143.1,65.8 		"/>
		<polygon style="fill:#3630FF;" points="108.9,95.2 49,95.2 78.9,181.1 		"/>
		<circle style="fill:#3630FF;" cx="209.6" cy="98.9" r="7.9"/>
		<circle style="fill:#3630FF;" cx="235.6" cy="98.9" r="14.2"/>
		<circle style="fill:#3630FF;" cx="78.9" cy="14.2" r="14.2"/>
		<path style="fill:#3630FF;" d="M494,106.8c0,1.6-0.2,3.1-0.7,4.6c-2.6,8.4-11.4,13.1-19.7,10.5c-8.4-2.6-13.1-11.4-10.5-19.7
			s11.4-13.1,19.7-10.5C489.5,93.7,494.1,99.8,494,106.8z"/>
		<path style="fill:#3630FF;" d="M556.2,36.5v0.1H556v141.1h0.1v0.1h99.2v-0.1h12.9V36.5H556.2z M638.9,148.6h-53.6V65.8h53.7
			L638.9,148.6z"/>
		<path style="fill:#3630FF;" d="M628.4,107.2c0,8.7-7.1,15.8-15.8,15.8c-8.7,0-15.8-7.1-15.8-15.8s7.1-15.8,15.8-15.8
			C621.3,91.4,628.4,98.4,628.4,107.2C628.4,107.2,628.4,107.2,628.4,107.2z"/>
		<path style="fill:#3630FF;" d="M529.3,132.1v12.2c0,1.3-0.1,2.6-0.2,3.8c-1.9,16.7-16.1,29.3-32.9,29.2h-65.9v-29.2h61.6
			c4.6,0,8.3-3.7,8.3-8.3v-7.8H529.3z"/>
		<path style="fill:#3630FF;" d="M529.5,36.1v29.2h-61.6c-4.6,0-8.3,3.7-8.3,8.3v8.2h-29.2V69.2c0-1.3,0.1-2.6,0.2-3.8
			c1.8-15.2,13.8-27.2,29-29c1.3-0.2,2.6-0.2,3.8-0.2L529.5,36.1z"/>
		<path style="fill:#3630FF;" d="M826.8,36.7v141.2h200.7V36.7H826.8z M917.5,59h20.4v17.6h-20.4V59z M939.1,156.3h-23.8v-49h-23.5
			v49h-23.7v-49h-12.4V89.9h12.4v-4c0-6.6,1.1-11.8,3.2-15.6c2.3-3.9,6-6.8,10.3-8.1c4.8-1.6,11.3-2.5,19.5-2.5h5.8v16.8h-3.1
			c-2.6-0.1-5.2,0.2-7.8,0.8c-1.5,0.4-2.7,1.5-3.3,3c-0.7,2.3-1,4.8-0.9,7.2v2.3h47.3L939.1,156.3z M998.6,155.4
			c-3.9,1.4-8.1,2.1-12.3,2c-9,0-15.8-2.5-20.5-7.6c-4.7-5.1-7-12.1-7-21v-21.5h-12.4V89.9h12.4v-15l23.7-7.6v22.6h16v17.4h-16v21.4
			c0,3.1,0.9,5.5,2.8,7.1c2,1.6,4.4,2.5,7,2.4c2.1-0.1,4.2-0.3,6.3-0.8L998.6,155.4z"/>
	</g>
</g>
</svg>
