<?xml version="1.0" encoding="utf-8"?>
<!-- Generator: Adobe Illustrator 24.1.0, SVG Export Plug-In . SVG Version: 6.00 Build 0)  -->
<svg version="1.1" id="Layer_1" xmlns="http://www.w3.org/2000/svg" xmlns:xlink="http://www.w3.org/1999/xlink" x="0px" y="0px"
	 viewBox="0 0 222.6 270.8" style="enable-background:new 0 0 222.6 270.8;" xml:space="preserve">
<g id="Layer_2_1_">
	<g id="Layer_1-2">
		<polygon style="fill:#FF7B00;" points="11,21.3 222.6,142.5 197,157.5 31.4,62.8 		"/>
		<polygon style="fill:#FF7B00;" points="107.8,262.8 96.8,270.8 42.8,112.1 53.8,104.1 161.7,166.4 		"/>
		<polygon style="fill:#FFAA00;" points="96.8,270.8 42.8,112.1 150.7,174.4 		"/>
		<path style="fill:#FF7B00;" d="M90.8,9.7c0.1-0.1,0.2-0.1,0.3-0.2c8.6-5,22.7,3,31.4,17.9c8.4,14.3,8.8,29.8,1.2,35.5l10.7-7.8
			l0.1-0.1c7.8-5.6,7.4-21.2-1-35.7c-8.7-15-22.8-23-31.5-17.9c-0.5,0.3-0.9,0.6-1.3,0.9L90.8,9.7z"/>
		<polygon style="fill:#FFAA00;" points="0,29.3 211.6,150.5 186,165.5 20.4,70.8 		"/>
		<polygon style="fill:#FF7B00;" points="222.6,142.5 211.6,150.5 0,29.3 11,21.3 		"/>
		<path style="fill:#FFAA00;" d="M91.3,45.7c8.7,15,22.8,23,31.4,17.9c0.3-0.2,0.5-0.3,0.7-0.5l0,0l0.3-0.2
			c7.6-5.7,7.2-21.2-1.2-35.5c-8.7-15-22.8-23-31.4-17.9c-0.1,0.1-0.2,0.1-0.3,0.2c0,0,0,0,0,0C82.5,15,82.7,31,91.3,45.7z"/>
	</g>
</g>
</svg>
