<?xml version="1.0" encoding="utf-8"?>
<!-- Generator: Adobe Illustrator 24.1.0, SVG Export Plug-In . SVG Version: 6.00 Build 0)  -->
<svg version="1.1" id="Layer_1" xmlns="http://www.w3.org/2000/svg" xmlns:xlink="http://www.w3.org/1999/xlink" x="0px" y="0px"
	 viewBox="0 0 222.6 270.8" style="enable-background:new 0 0 222.6 270.8;" xml:space="preserve">
<g id="Layer_2_1_">
	<g id="Layer_1-2">
		<polygon style="fill:#FF7B00;" points="191.2,62.8 25.6,157.5 0,142.5 211.6,21.3 		"/>
		<polygon style="fill:#FF7B00;" points="60.9,166.4 168.8,104.1 179.8,112.1 125.9,270.8 114.9,262.8 		"/>
		<polygon style="fill:#FFAA00;" points="71.9,174.4 179.8,112.1 125.9,270.8 		"/>
		<path style="fill:#FF7B00;" d="M131.9,9.7c-0.1-0.1-0.2-0.1-0.3-0.2c-8.6-5-22.7,3-31.4,17.9c-8.4,14.3-8.8,29.8-1.2,35.5
			l-10.7-7.8l-0.1-0.1c-7.8-5.6-7.4-21.2,1-35.7c8.7-15,22.8-23,31.5-17.9c0.5,0.3,0.9,0.6,1.3,0.9L131.9,9.7z"/>
		<polygon style="fill:#FFAA00;" points="202.2,70.8 36.6,165.5 11,150.5 222.6,29.3 		"/>
		<polygon style="fill:#FF7B00;" points="211.6,21.3 222.6,29.3 11,150.5 0,142.5 		"/>
		<path style="fill:#FFAA00;" d="M131.3,45.7c-8.7,15-22.8,23-31.4,17.9c-0.3-0.2-0.5-0.3-0.7-0.5l0,0l-0.3-0.2
			c-7.6-5.7-7.2-21.2,1.2-35.5c8.7-15,22.8-23,31.4-17.9c0.1,0.1,0.2,0.1,0.3,0.2c0,0,0,0,0,0C140.2,15,140,30.9,131.3,45.7z"/>
	</g>
</g>
</svg>
